<svg version="1.1" id="Capa_1" xmlns="http://www.w3.org/2000/svg" xmlns:xlink="http://www.w3.org/1999/xlink" x="0px" y="0px"
	 viewBox="0 0 490 490" style="enable-background:new 0 0 490 490;" xml:space="preserve">
<g>
	<g id="XMLID_408_">
		<rect x="313.607" y="36.726" width="85.737" height="15.313"/>
	</g>
	<g id="XMLID_585_">
		<rect x="205.582" y="36.726" width="77.871" height="15.313"/>
	</g>
	<g id="XMLID_586_">
		<rect x="92.316" y="36.726" width="82.589" height="15.313"/>
	</g>
	<g id="XMLID_98_">
		<polygon points="490,490 0,490 0,36.726 60.143,36.726 60.143,52.039 15.313,52.039 15.313,474.688 474.688,474.688 
			474.688,52.039 428.279,52.039 428.279,36.726 490,36.726 		"/>
	</g>
	<g id="XMLID_580_">
		<rect x="69" y="0" width="15" height="92"/>
	</g>
	<g id="XMLID_581_">
		<rect x="184" y="0" width="15" height="92"/>
	</g>
	<g id="XMLID_582_">
		<rect x="291" y="0" width="15" height="92"/>
	</g>
	<g id="XMLID_583_">
		<rect x="406" y="0" width="15" height="92"/>
	</g>
	<g id="XMLID_407_">
		<rect x="31" y="123" width="428" height="15"/>
	</g>
	<g id="XMLID_406_">
		<path d="M122.889,246.219h-77.25v-77.25h77.25V246.219z M60.951,230.906h46.625v-46.625H60.951V230.906z"/>
	</g>
	<g id="XMLID_410_">
		<path d="M230.031,246.219h-77.25v-77.25h77.25V246.219z M168.094,230.906h46.625v-46.625h-46.625V230.906z"/>
	</g>
	<g id="XMLID_446_">
		<path d="M337.219,246.219h-77.25v-77.25h77.25V246.219z M275.281,230.906h46.625v-46.625h-46.625V230.906z"/>
	</g>
	<g id="XMLID_447_">
		<path d="M444.264,246.219h-77.25v-77.25h77.25V246.219z M382.327,230.906h46.625v-46.625h-46.625V230.906z"/>
	</g>
	<g id="XMLID_450_">
		<path d="M122.889,345.75h-77.25V268.5h77.25V345.75z M60.951,330.437h46.625v-46.625H60.951V330.437z"/>
	</g>
	<g id="XMLID_449_">
		<path d="M230.031,345.75h-77.25V268.5h77.25V345.75z M168.094,330.437h46.625v-46.625h-46.625V330.437z"/>
	</g>
	<g id="XMLID_448_">
		<path d="M337.219,345.75h-77.25V268.5h77.25V345.75z M275.281,330.437h46.625v-46.625h-46.625V330.437z"/>
	</g>
	<g id="XMLID_409_">
		<path d="M444.264,345.75h-77.25V268.5h77.25V345.75z M382.327,330.437h46.625v-46.625h-46.625V330.437z"/>
	</g>
	<g id="XMLID_577_">
		<path d="M122.889,445.281h-77.25v-77.25h77.25V445.281z M60.951,429.969h46.625v-46.625H60.951V429.969z"/>
	</g>
	<g id="XMLID_453_">
		<path d="M230.031,445.281h-77.25v-77.25h77.25V445.281z M168.094,429.969h46.625v-46.625h-46.625V429.969z"/>
	</g>
	<g id="XMLID_452_">
		<path d="M337.219,445.281h-77.25v-77.25h77.25V445.281z M275.281,429.969h46.625v-46.625h-46.625V429.969z"/>
	</g>
	<g id="XMLID_451_">
		<path d="M444.264,445.281h-77.25v-77.25h77.25V445.281z M382.327,429.969h46.625v-46.625h-46.625V429.969z"/>
	</g>
</g>
<g>
</g>
<g>
</g>
<g>
</g>
<g>
</g>
<g>
</g>
<g>
</g>
<g>
</g>
<g>
</g>
<g>
</g>
<g>
</g>
<g>
</g>
<g>
</g>
<g>
</g>
<g>
</g>
<g>
</g>
</svg>
