<!-- icon666.com - MILLIONS vector ICONS FREE --><svg clip-rule="evenodd" fill-rule="evenodd" stroke-linejoin="round" stroke-miterlimit="2" viewBox="0 0 64 64" xmlns="http://www.w3.org/2000/svg"><g id="Exp-1.-O"><path d="m5.061 34.389c5.109-2.222 5.877-5.062 5.767-6.923-.015-2.175-1.802-3.951-3.999-3.951-1.991 0-3.644 1.458-3.95 3.363-.087.545.284 1.059.829 1.146.545.088 1.059-.284 1.146-.829.153-.952.98-1.68 1.975-1.68 1.104 0 2 .896 2 2 0 .02.001.041.002.061.085 1.394-.731 3.31-4.567 4.979-.507.22-.739.81-.519 1.316.221.506.81.738 1.316.518z" fill="#2d74ff"></path><path d="m5.023 34.404c7.597-2.939 12.124-5.817 20.653-5.932.552-.008.994-.462.986-1.014-.007-.551-.461-.993-1.013-.986-8.809.119-13.502 3.031-21.347 6.067-.515.199-.771.779-.572 1.294.199.514.779.771 1.293.571z" fill="#2d74ff"></path><path d="m5.229 40.296c8.21-5.638 12.854-7.632 29.445-7.824 17.911-.208 20.605-9.258 20.453-12.98-.011-3.573-2.919-6.474-6.499-6.474-3.588 0-6.5 2.913-6.5 6.5 0 2.462 1.371 4.607 3.392 5.709.484.265 1.092.086 1.357-.399.264-.484.085-1.092-.399-1.356-1.399-.764-2.35-2.249-2.35-3.954 0-2.484 2.016-4.5 4.5-4.5 2.483 0 4.5 2.016 4.5 4.5 0 .014 0 .029.001.043.142 3.287-2.593 10.727-18.478 10.911-17.224.2-22.031 2.322-30.555 8.176-.455.312-.57.935-.258 1.39.313.455.936.571 1.391.258z" fill="#2d74ff"></path><path d="m23.265 40.27c2.737-2.066 8.219-2.483 12.157-1.075 2.402.859 4.256 2.417 4.247 4.883v.004c0 1.656-1.345 3-3 3-1.656 0-3-1.344-3-3 0-.3.044-.59.126-.863.159-.529-.142-1.087-.67-1.246-.529-.159-1.087.141-1.246.67-.137.456-.21.939-.21 1.439 0 2.76 2.24 5 5 5 2.759 0 4.999-2.239 5-4.998.012-3.342-2.318-5.608-5.574-6.772-4.55-1.627-10.873-1.026-14.035 1.362-.441.332-.528.96-.196 1.4.333.441.961.528 1.401.196z" fill="#2d74ff"></path><path d="m43.714 35.471c4.371-.228 9.267 1.417 11.087 4.508.28.476.893.635 1.369.355.475-.28.634-.894.354-1.369-2.133-3.625-7.789-5.759-12.914-5.492-.551.029-.975.5-.946 1.051s.499.975 1.05.947z" fill="#2d74ff"></path><g fill="#738bab"><path d="m18.119 19.943c-1.561.493-3.265.803-4.644.73-.276-.015-.488-.25-.473-.526.014-.275.25-.487.525-.473 1.763.093 4.105-.477 5.864-1.258.139-.062.243-.183.281-.33.039-.147.009-.303-.082-.425-2.407-3.24-.388-8.42 5.782-10.689 3.942-1.45 6.082-2.921 7.164-4.142.022-.024.041-.05.057-.077.087-.147.248-.234.418-.226.165.008.312.104.387.251 2.104 5.009-.216 11.802-4.001 15.272-2.434 2.232-5.502 3.071-8.378.977-.223-.162-.536-.113-.698.11-.163.223-.114.536.11.699 3.307 2.407 6.843 1.518 9.642-1.049 4.063-3.725 6.508-11.033 4.246-16.4-.002-.006-.005-.011-.007-.017-.229-.491-.711-.815-1.252-.842-.524-.025-1.02.232-1.301.672-1.027 1.14-3.056 2.481-6.732 3.833-6.643 2.444-8.762 8.012-6.589 11.697-1.539.602-3.41 1.022-4.858.946-.827-.044-1.533.592-1.577 1.419-.043.827.592 1.533 1.419 1.577 1.484.078 3.319-.245 4.999-.776.263-.083.409-.364.326-.627s-.365-.41-.628-.326z"></path><path d="m8.137 49.629c-1.698.833-3.403 1.99-4.482 3.188-.554.616-.504 1.565.111 2.119.616.554 1.565.504 2.119-.112.97-1.078 2.59-2.104 4.103-2.766 1.07 4.141 6.506 6.581 12.93 3.612 3.554-1.642 5.936-2.13 7.47-2.05.511.112 1.044-.056 1.396-.445.364-.401.476-.972.29-1.481-.002-.005-.004-.011-.007-.017-2.195-5.394-9.091-8.833-14.599-8.594-3.794.164-6.923 2.036-7.559 6.077-.043.272.143.529.416.571.272.043.529-.143.572-.416.553-3.514 3.315-5.09 6.615-5.233 5.128-.223 11.569 2.938 13.623 7.956.057.164.021.34-.092.465-.114.126-.289.179-.455.136-.031-.008-.062-.013-.094-.015-1.629-.097-4.182.376-7.995 2.138-5.968 2.758-11.058.523-11.647-3.47-.022-.15-.111-.282-.242-.359-.131-.076-.29-.089-.432-.034-1.797.692-3.856 1.945-5.036 3.256-.185.205-.501.222-.707.037-.205-.184-.221-.501-.037-.706 1.005-1.116 2.599-2.183 4.18-2.959.247-.121.35-.421.228-.669-.121-.248-.421-.35-.669-.229z"></path><path d="m43.411 48.032c1.136.138 2.473.63 3.681 1.253-1.354 2.895.208 7.075 5.103 9.277 2.673 1.202 4.207 2.315 5.023 3.251.27.441.754.707 1.273.695.536-.011 1.023-.317 1.265-.796.003-.005.006-.011.009-.017 1.987-4.334.284-10.421-2.893-13.553-2.138-2.107-4.912-2.908-7.685-1.129-1.703-.968-3.739-1.755-5.413-1.959-.274-.034-.523.162-.557.436-.033.274.162.523.436.556 1.646.201 3.662 1.017 5.299 1.987.169.1.381.091.542-.022 2.404-1.688 4.822-.984 6.676.843 2.91 2.869 4.505 8.435 2.693 12.409-.079.149-.229.242-.394.246-.167.003-.323-.086-.406-.232-.016-.028-.034-.055-.056-.079-.866-1.012-2.5-2.243-5.402-3.548-4.464-2.008-5.935-5.808-4.409-8.31.071-.116.091-.256.056-.388-.034-.131-.121-.243-.24-.309-1.431-.794-3.095-1.435-4.48-1.604-.274-.033-.523.162-.556.436-.034.274.162.523.435.557z"></path><path d="m21.789 17.765c3.124-1.163 7.924-5.59 9.595-9.222.116-.251.006-.548-.245-.664-.251-.115-.548-.005-.663.246-1.575 3.424-6.091 7.607-9.036 8.703-.258.096-.39.384-.294.643.096.258.384.39.643.294z"></path><path d="m13.31 50.474c1.13-.565 2.887-.746 4.879-.7 3.094.073 6.74.719 9.582 1.514.266.074.542-.082.617-.347.074-.266-.082-.542-.347-.616-2.916-.815-6.655-1.476-9.828-1.55-2.186-.052-4.11.184-5.351.804-.246.124-.347.424-.223.671.123.247.424.347.671.224z"></path><path d="m50.145 49.725c2.728 1.214 6.049 5.186 7.345 9.619.077.265.355.418.62.34.265-.077.417-.355.339-.62-1.385-4.741-4.98-8.955-7.898-10.253-.252-.112-.548.001-.66.253-.112.253.001.548.254.661z"></path></g></g></svg>