<?xml version="1.0" encoding="iso-8859-1"?>
<!-- Generator: Adobe Illustrator 19.0.0, SVG Export Plug-In . SVG Version: 6.00 Build 0)  -->
<svg version="1.1" id="Layer_1" xmlns="http://www.w3.org/2000/svg" xmlns:xlink="http://www.w3.org/1999/xlink" x="0px" y="0px"
	 viewBox="0 0 511.999 511.999" style="enable-background:new 0 0 511.999 511.999;" xml:space="preserve">
<g>
	<g>
		<path d="M324.453,4.607H16.647C7.454,4.607,0,12.061,0,21.255v471.673c0,9.194,7.454,16.647,16.647,16.647h307.806
			c9.194,0,16.647-7.454,16.647-16.647V21.255C341.1,12.061,333.647,4.607,324.453,4.607z M307.805,476.28h-30.203l30.203-30.203
			V476.28z M307.806,402.315h-55.822c-9.194,0-16.647,7.454-16.647,16.647v57.318H33.295V37.902h274.511V402.315z"/>
	</g>
</g>
<g>
	<g>
		<path d="M166.763,66.757H78.061c-9.194,0-16.647,7.454-16.647,16.647s7.453,16.647,16.647,16.647h88.702
			c9.194,0,16.647-7.454,16.647-16.647S175.957,66.757,166.763,66.757z"/>
	</g>
</g>
<g>
	<g>
		<path d="M263.775,164.421H80.391c-9.195,0-16.647,7.454-16.647,16.647s7.454,16.647,16.647,16.647h183.384
			c9.194,0,16.647-7.454,16.647-16.647S272.969,164.421,263.775,164.421z"/>
	</g>
</g>
<g>
	<g>
		<path d="M263.775,243.588H80.391c-9.194,0-16.647,7.454-16.647,16.647s7.454,16.647,16.647,16.647h183.384
			c9.194,0,16.647-7.454,16.647-16.647S272.969,243.588,263.775,243.588z"/>
	</g>
</g>
<g>
	<g>
		<path d="M263.775,322.755H80.391c-9.194,0-16.647,7.454-16.647,16.647s7.454,16.647,16.647,16.647h183.384
			c9.194,0,16.647-7.453,16.647-16.647S272.969,322.755,263.775,322.755z"/>
	</g>
</g>
<g>
	<g>
		<path d="M495.353,114.479h-23.352V73.432c0-8.125-5.824-14.88-13.523-16.344v-25.9c0-15.95-12.976-28.926-28.926-28.926h-16.466
			c-15.95,0-28.927,12.976-28.927,28.926v25.9c-7.699,1.464-13.522,8.219-13.522,16.344v41.048h-0.694
			c-9.194,0-16.647,7.454-16.647,16.647s7.454,16.647,16.647,16.647h0.694v270.638c0,2.382,0.51,4.737,1.499,6.904l34.035,74.679
			c2.705,5.935,8.625,9.743,15.148,9.743c6.521,0,12.443-3.809,15.148-9.743l34.035-74.679c0.988-2.167,1.499-4.521,1.499-6.904
			V147.774h6.704v120.065c0,9.194,7.454,16.647,16.647,16.647s16.647-7.454,16.647-16.647V131.127
			C512,121.933,504.546,114.479,495.353,114.479z M417.453,35.556h7.731v21.229h-7.731V35.556z M403.93,90.079h34.775v24.4H403.93
			V90.079z M421.318,452.948l-8.153-17.889h16.307L421.318,452.948z M438.706,401.765h-34.775V147.774h34.775V401.765z"/>
	</g>
</g>
<g>
</g>
<g>
</g>
<g>
</g>
<g>
</g>
<g>
</g>
<g>
</g>
<g>
</g>
<g>
</g>
<g>
</g>
<g>
</g>
<g>
</g>
<g>
</g>
<g>
</g>
<g>
</g>
<g>
</g>
</svg>
