<svg height="27px" style="shape-rendering:geometricPrecision; text-rendering:geometricPrecision; image-rendering:optimizeQuality; fill-rule:evenodd; clip-rule:evenodd" version="1.1" viewBox="0 0 4.35 3.53" width="27px" xml:space="preserve" xmlns="http://www.w3.org/2000/svg" xmlns:xlink="http://www.w3.org/1999/xlink"><defs><style type="text/css">
  </style></defs><g id="Layer_x0020_1"><path class="fil0" d="M4.2 0.29l0.01 0.01c0.11,0.16 0.16,0.35 0.13,0.53 -0.02,0.18 -0.12,0.35 -0.28,0.47l-2.95 2.22 -0.77 0.01c-0.05,0 -0.1,-0.01 -0.15,-0.04 -0.05,-0.02 -0.09,-0.05 -0.12,-0.1 -0.03,-0.04 -0.06,-0.09 -0.07,-0.14 0,-0.05 0,-0.1 0.02,-0.16l0.22 -0.73 2.95 -2.22c0.16,-0.12 0.35,-0.16 0.53,-0.13 0.19,0.02 0.36,0.12 0.48,0.28zm-0.96 0.26l0.45 0.59 0.16 -0.12c0.08,-0.06 0.13,-0.15 0.14,-0.24 0.01,-0.09 -0.01,-0.19 -0.07,-0.27l-0.01 -0.01c-0.06,-0.08 -0.14,-0.13 -0.24,-0.14 -0.09,-0.02 -0.18,0.01 -0.26,0.06l-0.17 0.13zm0.17 0.8l-0.45 -0.59 -2.19 1.65 0.44 0.59 2.2 -1.65zm-2.51 1.82l-0.38 -0.51 -0.16 0.52 0.54 -0.01z"/></g></svg>